<svg xmlns="http://www.w3.org/2000/svg" viewBox="0 0 245.08 76.93"><title>RW_V1_full color</title><path d="M237.11,68.44H6.47a5.33,5.33,0,0,1-5.29-5.91L5,28.64a5.32,5.32,0,0,1,5.29-4.72H240.91a5.33,5.33,0,0,1,5.29,5.91l-3.8,33.88A5.32,5.32,0,0,1,237.11,68.44Z" transform="translate(-1.15 -2.11)" fill="#6abf4b"/><path d="M14.54,33.26h4.17a15.54,15.54,0,0,1,5.44.67,6.58,6.58,0,0,1,3,2.32,6.13,6.13,0,0,1,1,3.5A6.51,6.51,0,0,1,26.63,44a8,8,0,0,1-4.48,2.49L27.38,57.3H22.71L17.58,46.81h-.37L15.77,57.3H11.25Zm3.21,9.61c2.44,0,4-.26,4.77-.76a2.49,2.49,0,0,0,1.1-2.23,2.23,2.23,0,0,0-.44-1.42,2.34,2.34,0,0,0-1.28-.8,16,16,0,0,0-3.4-.23Z" transform="translate(-1.15 -2.11)" fill="#fff"/><path d="M41.34,52.1l3.84,2a8.93,8.93,0,0,1-3.42,2.68,11.13,11.13,0,0,1-4.73,1,8.77,8.77,0,0,1-6.42-2.29,8.11,8.11,0,0,1-2.34-6.08,10.08,10.08,0,0,1,2.93-7.33,9.58,9.58,0,0,1,7.08-3,9,9,0,0,1,4.46,1.09,7.83,7.83,0,0,1,3.08,3.19,9.42,9.42,0,0,1,1.12,4.54,11.57,11.57,0,0,1-.16,1.8H32.6a4.11,4.11,0,0,0,1.21,3A4.44,4.44,0,0,0,37,53.74,6.46,6.46,0,0,0,41.34,52.1Zm1.11-5.62A4.63,4.63,0,0,0,40.82,44a4.57,4.57,0,0,0-2.77-.84,5.14,5.14,0,0,0-2.89.86,5.46,5.46,0,0,0-2,2.45Z" transform="translate(-1.15 -2.11)" fill="#fff"/><path d="M59.59,42l-2.08,3.33a6.07,6.07,0,0,0-1.68-1.76A3.16,3.16,0,0,0,54.17,43a1.56,1.56,0,0,0-1,.33.94.94,0,0,0-.41.73,1.24,1.24,0,0,0,.33.79A13.08,13.08,0,0,0,55,46.39a12.37,12.37,0,0,1,3.3,3.08,5.16,5.16,0,0,1,.79,2.78A5.45,5.45,0,0,1,57.45,56a6.1,6.1,0,0,1-4.72,1.77A7.2,7.2,0,0,1,49.49,57a12.18,12.18,0,0,1-3.26-2.63l2.69-3.14q1.83,2.41,4,2.42a2.14,2.14,0,0,0,1.38-.42,1.22,1.22,0,0,0,.51-1,1.5,1.5,0,0,0-.39-.94,12.75,12.75,0,0,0-2.14-1.73,12.78,12.78,0,0,1-2.79-2.47,5,5,0,0,1-1.08-3,4.51,4.51,0,0,1,1.69-3.65,6,6,0,0,1,4-1.4,6.53,6.53,0,0,1,3.08.76A6.71,6.71,0,0,1,59.59,42Z" transform="translate(-1.15 -2.11)" fill="#fff"/><path d="M63.45,32.92h4.34l-.9,6.6h2.76l-.52,3.76H66.38l-1.91,14H60.12l1.91-14H59.89l.51-3.76h2.15Z" transform="translate(-1.15 -2.11)" fill="#fff"/><path d="M83.66,39.52H88L85.55,57.3H81.23l.26-1.91a9.5,9.5,0,0,1-2.65,1.85,7.06,7.06,0,0,1-2.78.52,6.85,6.85,0,0,1-5.62-2.6,9.37,9.37,0,0,1-2.08-6,10.05,10.05,0,0,1,1.33-5,9.78,9.78,0,0,1,3.59-3.71A9.06,9.06,0,0,1,78,39.07a6.31,6.31,0,0,1,3,.75A6.16,6.16,0,0,1,83.32,42ZM77.11,53.87a5.37,5.37,0,0,0,2.81-.72,5.66,5.66,0,0,0,2-2.25,6.61,6.61,0,0,0,.81-3.13,4.75,4.75,0,0,0-1.22-3.4,4.26,4.26,0,0,0-3.24-1.28,5.28,5.28,0,0,0-4,1.71,6.21,6.21,0,0,0-1.63,4.43,4.62,4.62,0,0,0,1.24,3.37A4.21,4.21,0,0,0,77.11,53.87Z" transform="translate(-1.15 -2.11)" fill="#fff"/><path d="M90.74,39.52h4.31l-1.24,9.09a18.89,18.89,0,0,0-.19,2.25,2.66,2.66,0,0,0,.81,2,3,3,0,0,0,2.13.8,3.25,3.25,0,0,0,2.59-1c.61-.68,1-2.08,1.34-4.18l1.21-8.91H106l-1.27,9.57a13.69,13.69,0,0,1-1.48,5,7.21,7.21,0,0,1-2.76,2.72,8.3,8.3,0,0,1-4.05.95,7.14,7.14,0,0,1-5.21-1.89A6.51,6.51,0,0,1,89.32,51a32.49,32.49,0,0,1,.43-4.7Z" transform="translate(-1.15 -2.11)" fill="#fff"/><path d="M107.75,39.52h3.89l-.31,2.42c1.17-1.92,2.57-2.87,4.2-2.87a2.8,2.8,0,0,1,1.23.31l-1.6,4a2.48,2.48,0,0,0-.73-.18,2.8,2.8,0,0,0-2.28,1.48q-1,1.47-1.58,6l-.86,6.68h-4.39Z" transform="translate(-1.15 -2.11)" fill="#fff"/><path d="M130.52,39.52h4.37L132.41,57.3h-4.32l.26-1.91a9.68,9.68,0,0,1-2.66,1.85,7,7,0,0,1-2.77.52,6.83,6.83,0,0,1-5.62-2.6,9.38,9.38,0,0,1-2.09-6,10.06,10.06,0,0,1,1.34-5,9.75,9.75,0,0,1,3.58-3.71,9.09,9.09,0,0,1,4.71-1.33,6.11,6.11,0,0,1,5.34,3ZM124,53.87a5.38,5.38,0,0,0,2.82-.72,5.57,5.57,0,0,0,2-2.25,6.61,6.61,0,0,0,.81-3.13,4.71,4.71,0,0,0-1.22-3.4,4.24,4.24,0,0,0-3.23-1.28,5.25,5.25,0,0,0-4,1.71,6.16,6.16,0,0,0-1.63,4.43,4.66,4.66,0,0,0,1.23,3.37A4.21,4.21,0,0,0,124,53.87Z" transform="translate(-1.15 -2.11)" fill="#fff"/><path d="M137.55,39.52h4.35l-.25,1.81a7.72,7.72,0,0,1,5.21-2.26,5.1,5.1,0,0,1,3.77,1.46,5,5,0,0,1,1.48,3.69,26.87,26.87,0,0,1-.28,3.12l-1.36,10h-4.36l1.33-9.72a19.36,19.36,0,0,0,.2-2.26,2.16,2.16,0,0,0-.62-1.65,2.42,2.42,0,0,0-1.74-.58,3.8,3.8,0,0,0-2.2.76,4.79,4.79,0,0,0-1.69,2.1A21.51,21.51,0,0,0,140.31,51l-.84,6.29h-4.35Z" transform="translate(-1.15 -2.11)" fill="#fff"/><path d="M156.49,32.92h4.34l-.9,6.6h2.76l-.52,3.76h-2.75l-1.91,14h-4.35l1.91-14h-2.14l.51-3.76h2.15Z" transform="translate(-1.15 -2.11)" fill="#fff"/><path d="M161.31,39.52h4.21L168,49.05l5.18-9.53h1.72l2.48,9.53,14.18-25.14h4.69L177.48,57.3h-2.1L173,47.91l-5.07,9.39h-2Z" transform="translate(-1.15 -2.11)" fill="#fff"/><path d="M201.46,39.52h4.37L203.35,57.3H199l.26-1.91a9.53,9.53,0,0,1-2.66,1.85,7,7,0,0,1-2.77.52,6.83,6.83,0,0,1-5.62-2.6,9.38,9.38,0,0,1-2.09-6,10.06,10.06,0,0,1,1.34-5,9.75,9.75,0,0,1,3.58-3.71,9.09,9.09,0,0,1,4.71-1.33,6.31,6.31,0,0,1,3,.75,6.23,6.23,0,0,1,2.3,2.21Zm-6.55,14.35a5.37,5.37,0,0,0,2.81-.72,5.57,5.57,0,0,0,2-2.25,6.51,6.51,0,0,0,.82-3.13,4.72,4.72,0,0,0-1.23-3.4,4.23,4.23,0,0,0-3.23-1.28,5.26,5.26,0,0,0-4,1.71,6.16,6.16,0,0,0-1.63,4.43,4.66,4.66,0,0,0,1.23,3.37A4.23,4.23,0,0,0,194.91,53.87Z" transform="translate(-1.15 -2.11)" fill="#fff"/><path d="M207.48,39.52h3.88l-.31,2.42c1.17-1.92,2.57-2.87,4.2-2.87a2.76,2.76,0,0,1,1.23.31l-1.6,4a2.41,2.41,0,0,0-.73-.18,2.8,2.8,0,0,0-2.28,1.48q-1,1.47-1.58,6l-.86,6.68h-4.38Z" transform="translate(-1.15 -2.11)" fill="#fff"/><path d="M228.07,52.1l3.84,2a8.93,8.93,0,0,1-3.42,2.68,11.1,11.1,0,0,1-4.73,1,8.8,8.8,0,0,1-6.42-2.29A8.11,8.11,0,0,1,215,49.39a10.12,10.12,0,0,1,2.93-7.33,9.59,9.59,0,0,1,7.09-3,9,9,0,0,1,4.45,1.09,7.77,7.77,0,0,1,3.08,3.19,9.43,9.43,0,0,1,1.13,4.54,11.71,11.71,0,0,1-.17,1.8H219.33a4.08,4.08,0,0,0,1.22,3,4.44,4.44,0,0,0,3.18,1.1A6.45,6.45,0,0,0,228.07,52.1Zm1.11-5.62A4.58,4.58,0,0,0,227.55,44a4.52,4.52,0,0,0-2.76-.84,5.11,5.11,0,0,0-2.89.86,5.48,5.48,0,0,0-2,2.45Z" transform="translate(-1.15 -2.11)" fill="#fff"/><path d="M193.75,33.82s7.75-23.37,19.83-28.66C210.68,7.49,207.34,10,201.94,20c4.05,2,8.55.51,9.86-2s2.25-11,10.12-15.15c-11.25-2.23-18.62.85-22.36,4.7-1.76,1.82-2.94,6.72-.6,10.56-2.39,4.48-6.76,15.48-6.76,15.48Z" transform="translate(-1.15 -2.11)" fill="#6abf4b"/><path d="M41.54,75.87H38.43L38,77.94h3.54l-.35,1H36.6L38,72.11h4.45l-.21,1H39l-.38,1.74h3.11Z" transform="translate(-1.15 -2.11)" fill="#010101"/><path d="M51,76.85A3,3,0,0,1,48,79c-1.69,0-2.54-1.09-2.54-2.74,0-1.87,1-4.28,3.61-4.28a2.21,2.21,0,0,1,2.47,2.23H50.24A1.2,1.2,0,0,0,48.9,73c-1.45,0-2.18,1.76-2.18,3.27,0,1,.35,1.78,1.38,1.78a1.73,1.73,0,0,0,1.67-1.2Z" transform="translate(-1.15 -2.11)" fill="#010101"/><path d="M61.18,74.85C61.18,76.92,60,79,57.46,79a2.5,2.5,0,0,1-2.65-2.75c0-2,1.22-4.28,3.67-4.28A2.56,2.56,0,0,1,61.18,74.85Zm-5.12,1.4c0,1.07.51,1.81,1.56,1.81,1.62,0,2.32-1.72,2.32-3.23,0-1.08-.46-1.83-1.53-1.83C56.84,73,56.06,74.75,56.06,76.25Z" transform="translate(-1.15 -2.11)" fill="#010101"/><path d="M67.78,74.91l-.22,1H65l.22-1Z" transform="translate(-1.15 -2.11)" fill="#010101"/><path d="M72.43,72.11h4.44l-.22,1H73.4L73,75h3l-.22,1h-3l-.6,2.9H71Z" transform="translate(-1.15 -2.11)" fill="#010101"/><path d="M81.13,76.07l-.61,2.87H79.33l1.44-6.83h2.49c1.3,0,2,.66,2,1.75a1.73,1.73,0,0,1-1.43,1.78c.31.14.85.51.61,1.66a6.51,6.51,0,0,0-.25,1.64H83.08a5.53,5.53,0,0,1,.2-1.63c.18-.83,0-1.24-.85-1.24Zm.2-1h1.22c.9,0,1.5-.3,1.5-1.1,0-.59-.33-.88-1.06-.88H81.75Z" transform="translate(-1.15 -2.11)" fill="#010101"/><path d="M91,72.11l-1.45,6.83h-1.2l1.44-6.83Z" transform="translate(-1.15 -2.11)" fill="#010101"/><path d="M99,75.87H95.89l-.44,2.07H99l-.36,1H94.05l1.44-6.83H100l-.21,1H96.48l-.38,1.74h3.11Z" transform="translate(-1.15 -2.11)" fill="#010101"/><path d="M102.59,78.94,104,72.11h1.56c.52,1.59,1.54,4.61,1.7,5.44h0c.11-.8.37-2,.61-3.13l.49-2.31h1.14l-1.45,6.83h-1.48c-.47-1.45-1.56-4.88-1.71-5.65h0c-.13.87-.38,2.06-.65,3.28l-.5,2.37Z" transform="translate(-1.15 -2.11)" fill="#010101"/><path d="M114,72.11h2.12A2.68,2.68,0,0,1,119,75a3.69,3.69,0,0,1-3.89,3.93h-2.57ZM114,78h1.18c1.61,0,2.59-1.13,2.6-2.93,0-1.26-.64-1.93-1.78-1.93h-1Z" transform="translate(-1.15 -2.11)" fill="#010101"/><path d="M123.83,72.11H125l-1.23,5.83h3.32l-.34,1h-4.4Z" transform="translate(-1.15 -2.11)" fill="#010101"/><path d="M130.94,78.94l.53-2.51a.45.45,0,0,0,0-.2L130,72.11h1.25c.32,1,.86,2.61,1,3.3.42-.68,1.66-2.27,2.41-3.3H136l-3.23,4.19a.35.35,0,0,0-.1.19l-.51,2.45Z" transform="translate(-1.15 -2.11)" fill="#010101"/><path d="M144.37,76.88a1.26,1.26,0,0,0,1.45,1.21c.79,0,1.27-.31,1.27-1s-.31-.88-1.29-1.24c-1.35-.47-1.84-1-1.84-1.84,0-1.06.75-2,2.41-2s2.35.84,2.37,2h-1.22c0-.51-.28-1-1.21-1-.68,0-1.1.35-1.1.9s.22.67,1.14,1c1.4.51,2,1.07,2,2.06S147.7,79,145.69,79c-1.66,0-2.52-.87-2.54-2.16Z" transform="translate(-1.15 -2.11)" fill="#010101"/><path d="M154.3,72.11l-.9,4.21c-.27,1.23.27,1.75,1.2,1.75s1.43-.47,1.68-1.67l.91-4.29h1.22l-.93,4.37c-.39,1.75-1.13,2.55-3,2.55-1.59,0-2.72-.76-2.28-2.78l.87-4.14Z" transform="translate(-1.15 -2.11)" fill="#010101"/><path d="M162.78,72.11h2.31c1.41,0,2.2.79,2.2,1.9,0,1.54-1.15,2.29-2.75,2.29h-1.46l-.55,2.64h-1.19Zm.51,3.21h1.2c1,0,1.53-.38,1.53-1.25,0-.66-.41-1-1.19-1h-1.07Z" transform="translate(-1.15 -2.11)" fill="#010101"/><path d="M171.65,72.11H174c1.41,0,2.2.79,2.2,1.9,0,1.54-1.14,2.29-2.74,2.29H172l-.56,2.64h-1.19Zm.51,3.21h1.2c1,0,1.53-.38,1.53-1.25,0-.66-.41-1-1.19-1h-1.06Z" transform="translate(-1.15 -2.11)" fill="#010101"/><path d="M180.52,72.11h1.22l-1.24,5.83h3.32l-.33,1h-4.41Z" transform="translate(-1.15 -2.11)" fill="#010101"/><path d="M189.88,72.11l-1.45,6.83h-1.2l1.44-6.83Z" transform="translate(-1.15 -2.11)" fill="#010101"/><path d="M197.84,75.87h-3.11l-.44,2.07h3.55l-.36,1h-4.59l1.44-6.83h4.46l-.21,1h-3.26L195,74.86h3.1Z" transform="translate(-1.15 -2.11)" fill="#010101"/><path d="M202.68,76.88a1.27,1.27,0,0,0,1.45,1.21c.79,0,1.28-.31,1.28-1s-.32-.88-1.3-1.24c-1.35-.47-1.84-1-1.84-1.84,0-1.06.76-2,2.42-2s2.35.84,2.37,2h-1.23c0-.51-.27-1-1.2-1-.68,0-1.11.35-1.11.9s.22.67,1.15,1c1.39.51,2,1.07,2,2.06S206,79,204,79c-1.66,0-2.52-.87-2.55-2.16Z" transform="translate(-1.15 -2.11)" fill="#010101"/></svg>